<svg xmlns="http://www.w3.org/2000/svg" viewBox="0 0 32 32" fill="none">
  <!-- Background circle -->
  <circle cx="16" cy="16" r="15" fill="#00D9FF"/>
  
  <!-- Chat bubbles -->
  <g>
    <!-- First chat bubble (left) -->
    <path d="M8 10h8c1.1 0 2 .9 2 2v4c0 1.1-.9 2-2 2h-1l-2 2v-2h-5c-1.1 0-2-.9-2-2v-4c0-1.1.9-2 2-2z" fill="white" opacity="0.9"/>
    
    <!-- Second chat bubble (right) -->
    <path d="M16 14h8c1.1 0 2 .9 2 2v4c0 1.1-.9 2-2 2h-5v2l-2-2h-1c-1.1 0-2-.9-2-2v-4c0-1.1.9-2 2-2z" fill="white" opacity="0.7"/>
  </g>
  
  <!-- T2T text -->
  <text x="16" y="19" font-family="Arial, sans-serif" font-size="8" font-weight="bold" text-anchor="middle" fill="#00D9FF">T2T</text>
</svg>