<svg xmlns="http://www.w3.org/2000/svg" viewBox="0 0 32 32" fill="none">
  <!-- Gradient definition -->
  <defs>
    <linearGradient id="gradient" x1="0%" y1="0%" x2="100%" y2="100%">
      <stop offset="0%" style="stop-color:#39FF14;stop-opacity:1" />
      <stop offset="100%" style="stop-color:#00FF00;stop-opacity:1" />
    </linearGradient>
  </defs>
  
  <!-- Background rounded square -->
  <rect x="2" y="2" width="28" height="28" rx="6" fill="url(#gradient)"/>
  
  <!-- Overlapping speech bubbles forming a continuous conversation -->
  <g>
    <!-- Left bubble -->
    <path d="M7 12c0-1.1.9-2 2-2h6c1.1 0 2 .9 2 2v3c0 1.1-.9 2-2 2h-4l-2 2v-2h-2c-1.1 0-2-.9-2-2v-3z" fill="white" opacity="0.9"/>
    
    <!-- Right bubble -->
    <path d="M15 16c0-1.1.9-2 2-2h6c1.1 0 2 .9 2 2v3c0 1.1-.9 2-2 2h-2v2l-2-2h-4c-1.1 0-2-.9-2-2v-3z" fill="white" opacity="0.9"/>
    
    <!-- Connection dots -->
    <circle cx="12" cy="16" r="0.5" fill="white"/>
    <circle cx="14" cy="16" r="0.5" fill="white"/>
    <circle cx="16" cy="16" r="0.5" fill="white"/>
  </g>
</svg>